<?xml version="1.0" encoding="UTF-8"?>
<svg xmlns="http://www.w3.org/2000/svg" xmlns:xlink="http://www.w3.org/1999/xlink" width="472.48pt" height="254.11pt" viewBox="0 0 472.48 254.11" version="1.1">
<defs>
<clipPath id="clip1">
  <path d="M 0 0 L 472.480469 0 L 472.480469 254.109375 L 0 254.109375 Z M 0 0 "/>
</clipPath>
<clipPath id="clip2">
  <path d="M 1 65 L 472.480469 65 L 472.480469 169 L 1 169 Z M 1 65 "/>
</clipPath>
</defs>
<g id="surface1">
<g clip-path="url(#clip1)" clip-rule="nonzero">
<path style=" stroke:none;fill-rule:nonzero;fill:rgb(81.999207%,82.699585%,83.099365%);fill-opacity:1;" d="M 471.15625 193.878906 L 390.210938 193.878906 C 389.480469 193.878906 388.890625 194.472656 388.890625 195.199219 C 388.890625 195.929688 389.480469 196.523438 390.210938 196.523438 L 471.15625 196.523438 C 471.886719 196.523438 472.480469 195.929688 472.480469 195.199219 C 472.480469 194.472656 471.886719 193.878906 471.15625 193.878906 Z M 82.265625 193.878906 L 1.320313 193.878906 C 0.589844 193.878906 0 194.472656 0 195.199219 C 0 195.929688 0.589844 196.523438 1.320313 196.523438 L 82.265625 196.523438 C 82.996094 196.523438 83.589844 195.929688 83.589844 195.199219 C 83.589844 194.472656 82.996094 193.878906 82.265625 193.878906 Z M 150.292969 194.664063 C 150.292969 194.664063 158.597656 190.9375 167.402344 200.679688 C 167.402344 200.679688 189.074219 226.480469 223.503906 233.0625 C 223.503906 233.0625 173.886719 216.351563 188.289063 181.484375 L 237.539063 48.335938 L 286.792969 181.484375 C 301.195313 216.351563 251.578125 233.0625 251.578125 233.0625 C 286.007813 226.480469 307.675781 200.679688 307.675781 200.679688 C 316.484375 190.9375 324.789063 194.664063 324.789063 194.664063 C 317.238281 167.445313 326.34375 149.914063 326.34375 149.914063 C 292.082031 163.457031 280.183594 121.738281 280.183594 121.738281 L 238.308594 2.539063 L 237.652344 0.648438 L 237.652344 0.00390625 L 237.539063 0.324219 L 237.429688 0.00390625 L 237.429688 0.648438 L 236.773438 2.539063 L 194.898438 121.738281 C 194.898438 121.738281 183.003906 163.457031 148.738281 149.914063 C 148.738281 149.914063 157.84375 167.445313 150.292969 194.664063 Z M 236.558594 237.390625 L 236.558594 237.046875 L 236.371094 237.234375 L 236.183594 237.046875 L 236.183594 237.390625 C 233.515625 239.492188 196.960938 266.359375 146.039063 204.960938 C 146.039063 204.960938 175.273438 254.34375 236.160156 254.109375 C 236.230469 254.109375 236.300781 254.109375 236.371094 254.109375 C 236.441406 254.109375 236.511719 254.109375 236.582031 254.109375 C 297.46875 254.34375 326.703125 204.960938 326.703125 204.960938 C 275.785156 266.355469 239.238281 239.496094 236.558594 237.390625 "/>
</g>
<path style=" stroke:none;fill-rule:nonzero;fill:#7a1315;fill-opacity:1;" d="M 376.085938 212.671875 C 372.996094 215.613281 369.492188 216.742188 364.242188 216.742188 C 360.171875 216.742188 358.160156 215.554688 357.492188 214.480469 C 357.082031 213.859375 356.980469 211.597656 356.925781 210.183594 C 356.875 209.109375 356.824219 204.761719 356.824219 198.769531 L 356.824219 191.648438 C 356.824219 187.183594 356.824219 182.265625 356.875 180.347656 C 356.875 179.722656 357.03125 179.441406 357.492188 179.214844 C 357.90625 178.988281 359.8125 178.816406 360.839844 178.816406 C 364.859375 178.816406 370.730469 179.496094 375.46875 184.472656 C 377.683594 186.785156 380.414063 191.421875 380.414063 198.601563 C 380.414063 204.421875 379.382813 209.5625 376.085938 212.671875 Z M 382.316406 182.605469 C 376.707031 176.164063 368.101563 176.164063 361.664063 176.164063 C 358.574219 176.164063 355.332031 176.332031 353.734375 176.332031 C 352.292969 176.332031 349.046875 176.164063 346.320313 176.164063 C 345.542969 176.164063 345.183594 176.273438 345.183594 176.671875 C 345.183594 177.066406 345.496094 177.179688 346.058594 177.179688 C 346.78125 177.179688 347.65625 177.238281 348.066406 177.351563 C 349.769531 177.746094 350.179688 178.648438 350.28125 180.570313 C 350.386719 182.378906 350.386719 183.960938 350.386719 192.554688 L 350.386719 202.5 C 350.386719 207.699219 350.386719 212.164063 350.125 214.535156 C 349.921875 216.175781 349.664063 217.417969 348.632813 217.644531 C 348.171875 217.757813 347.554688 217.871094 346.78125 217.871094 C 346.160156 217.871094 345.957031 218.039063 345.957031 218.324219 C 345.957031 218.71875 346.320313 218.890625 346.988281 218.890625 C 348.015625 218.890625 349.355469 218.773438 350.539063 218.773438 C 351.777344 218.71875 352.910156 218.71875 353.476563 218.71875 C 354.761719 218.71875 356.566406 218.890625 358.523438 219.058594 C 360.480469 219.226563 362.59375 219.398438 364.445313 219.398438 C 373.972656 219.398438 379.332031 215.386719 381.703125 212.730469 C 384.582031 209.507813 387.3125 204.082031 387.3125 196.960938 C 387.3125 190.234375 384.894531 185.546875 382.316406 182.605469 Z M 310.078125 210.296875 C 309.722656 210.296875 309.621094 210.523438 309.519531 211.148438 C 309.164063 213.464844 308.558594 214.648438 307.238281 215.328125 C 305.917969 216.007813 303.789063 216.007813 302.472656 216.007813 C 297.296875 216.007813 296.484375 215.15625 296.382813 211.257813 C 296.335938 209.621094 296.382813 204.421875 296.382813 202.5 L 296.382813 198.035156 C 296.382813 197.691406 296.433594 197.46875 296.6875 197.46875 C 297.90625 197.46875 302.925781 197.527344 303.890625 197.636719 C 305.765625 197.863281 306.476563 198.710938 306.730469 199.84375 C 306.882813 200.578125 306.882813 201.3125 306.933594 201.878906 C 306.933594 202.160156 307.035156 202.386719 307.390625 202.386719 C 307.847656 202.386719 307.847656 201.765625 307.847656 201.3125 C 307.847656 200.914063 308 198.65625 308.050781 197.527344 C 308.253906 194.644531 308.457031 193.738281 308.457031 193.398438 C 308.457031 193.0625 308.304688 192.949219 308.097656 192.949219 C 307.847656 192.949219 307.644531 193.230469 307.285156 193.683594 C 306.832031 194.246094 306.070313 194.417969 304.855469 194.53125 C 303.6875 194.644531 297.855469 194.644531 296.742188 194.644531 C 296.433594 194.644531 296.382813 194.417969 296.382813 194.019531 L 296.382813 179.722656 C 296.382813 179.328125 296.484375 179.160156 296.742188 179.160156 C 297.753906 179.160156 303.078125 179.269531 303.941406 179.382813 C 306.476563 179.722656 306.984375 180.402344 307.339844 181.417969 C 307.59375 182.097656 307.644531 183.058594 307.644531 183.453125 C 307.644531 183.960938 307.746094 184.246094 308.097656 184.246094 C 308.457031 184.246094 308.558594 183.90625 308.609375 183.625 C 308.707031 182.945313 308.808594 180.457031 308.859375 179.894531 C 309.011719 177.292969 309.265625 176.613281 309.265625 176.21875 C 309.265625 175.9375 309.21875 175.710938 308.960938 175.710938 C 308.707031 175.710938 308.40625 175.878906 308.148438 175.9375 C 307.746094 176.050781 306.933594 176.164063 305.96875 176.273438 C 305.007813 176.332031 294.914063 176.332031 293.289063 176.332031 C 292.582031 176.332031 291.414063 176.273438 290.097656 176.21875 C 288.828125 176.21875 287.355469 176.164063 285.988281 176.164063 C 285.226563 176.164063 284.871094 176.273438 284.871094 176.671875 C 284.871094 177.066406 285.175781 177.179688 285.734375 177.179688 C 286.445313 177.179688 287.304688 177.238281 287.710938 177.351563 C 289.386719 177.746094 289.789063 178.648438 289.894531 180.570313 C 289.996094 182.378906 289.996094 183.960938 289.996094 192.554688 L 289.996094 202.5 C 289.996094 207.699219 289.996094 212.164063 289.742188 214.535156 C 289.539063 216.175781 289.28125 217.417969 288.269531 217.644531 C 287.8125 217.757813 287.203125 217.871094 286.445313 217.871094 C 285.835938 217.871094 285.632813 218.039063 285.632813 218.324219 C 285.632813 218.71875 285.988281 218.890625 286.648438 218.890625 C 287.660156 218.890625 288.980469 218.773438 290.148438 218.773438 C 291.363281 218.71875 292.480469 218.71875 293.035156 218.71875 C 294.558594 218.71875 296.128906 218.773438 298.3125 218.890625 C 300.492188 218.945313 303.28125 219.058594 307.085938 219.058594 C 309.011719 219.058594 309.46875 219.058594 309.824219 217.589844 C 310.078125 216.457031 310.484375 212.613281 310.484375 211.316406 C 310.484375 210.75 310.484375 210.296875 310.078125 210.296875 Z M 249.167969 210.296875 C 248.8125 210.296875 248.710938 210.523438 248.609375 211.148438 C 248.253906 213.464844 247.644531 214.648438 246.324219 215.328125 C 245.007813 216.007813 242.878906 216.007813 241.558594 216.007813 C 236.386719 216.007813 235.574219 215.15625 235.472656 211.257813 C 235.421875 209.621094 235.472656 204.421875 235.472656 202.5 L 235.472656 198.035156 C 235.472656 197.691406 235.523438 197.46875 235.777344 197.46875 C 236.996094 197.46875 242.015625 197.527344 242.980469 197.636719 C 244.855469 197.863281 245.566406 198.710938 245.820313 199.84375 C 245.972656 200.578125 245.972656 201.3125 246.023438 201.878906 C 246.023438 202.160156 246.125 202.386719 246.480469 202.386719 C 246.9375 202.386719 246.9375 201.765625 246.9375 201.3125 C 246.9375 200.914063 247.089844 198.65625 247.136719 197.527344 C 247.339844 194.644531 247.546875 193.738281 247.546875 193.398438 C 247.546875 193.0625 247.390625 192.949219 247.191406 192.949219 C 246.9375 192.949219 246.734375 193.230469 246.378906 193.683594 C 245.921875 194.246094 245.160156 194.417969 243.945313 194.53125 C 242.777344 194.644531 236.945313 194.644531 235.828125 194.644531 C 235.523438 194.644531 235.472656 194.417969 235.472656 194.019531 L 235.472656 179.722656 C 235.472656 179.328125 235.574219 179.160156 235.828125 179.160156 C 236.84375 179.160156 242.167969 179.269531 243.03125 179.382813 C 245.566406 179.722656 246.074219 180.402344 246.429688 181.417969 C 246.683594 182.097656 246.734375 183.058594 246.734375 183.453125 C 246.734375 183.960938 246.835938 184.246094 247.191406 184.246094 C 247.546875 184.246094 247.644531 183.90625 247.699219 183.625 C 247.796875 182.945313 247.898438 180.457031 247.949219 179.894531 C 248.101563 177.292969 248.355469 176.613281 248.355469 176.21875 C 248.355469 175.9375 248.304688 175.710938 248.050781 175.710938 C 247.796875 175.710938 247.492188 175.878906 247.238281 175.9375 C 246.835938 176.050781 246.023438 176.164063 245.058594 176.273438 C 244.097656 176.332031 234.003906 176.332031 232.378906 176.332031 C 231.667969 176.332031 230.503906 176.273438 229.183594 176.21875 C 227.917969 176.21875 226.445313 176.164063 225.078125 176.164063 C 224.316406 176.164063 223.960938 176.273438 223.960938 176.671875 C 223.960938 177.066406 224.265625 177.179688 224.824219 177.179688 C 225.53125 177.179688 226.394531 177.238281 226.800781 177.351563 C 228.476563 177.746094 228.882813 178.648438 228.980469 180.570313 C 229.082031 182.378906 229.082031 183.960938 229.082031 192.554688 L 229.082031 202.5 C 229.082031 207.699219 229.082031 212.164063 228.832031 214.535156 C 228.625 216.175781 228.375 217.417969 227.359375 217.644531 C 226.902344 217.757813 226.292969 217.871094 225.53125 217.871094 C 224.925781 217.871094 224.722656 218.039063 224.722656 218.324219 C 224.722656 218.71875 225.078125 218.890625 225.734375 218.890625 C 226.75 218.890625 228.070313 218.773438 229.234375 218.773438 C 230.453125 218.71875 231.566406 218.71875 232.125 218.71875 C 233.648438 218.71875 235.21875 218.773438 237.402344 218.890625 C 239.582031 218.945313 242.371094 219.058594 246.175781 219.058594 C 248.101563 219.058594 248.558594 219.058594 248.914063 217.589844 C 249.167969 216.457031 249.574219 212.613281 249.574219 211.316406 C 249.574219 210.75 249.574219 210.296875 249.167969 210.296875 Z M 175.761719 197.636719 C 174.761719 198.375 174.039063 198.601563 171.816406 198.601563 C 170.429688 198.601563 168.761719 198.429688 167.597656 198.035156 C 167.207031 197.863281 167.097656 197.636719 167.097656 197.019531 L 167.097656 179.835938 C 167.097656 179.382813 167.207031 179.160156 167.597656 179.046875 C 168.152344 178.875 169.152344 178.816406 170.539063 178.816406 C 173.816406 178.816406 179.039063 181.136719 179.039063 189.164063 C 179.039063 193.796875 177.425781 196.398438 175.761719 197.636719 Z M 198.089844 217.871094 C 197.644531 217.871094 197.144531 217.816406 196.535156 217.703125 C 195.703125 217.53125 193.425781 217.136719 190.3125 213.859375 C 187.035156 210.355469 183.203125 205.324219 178.261719 198.996094 C 183.871094 194.359375 185.59375 190.519531 185.59375 186.335938 C 185.59375 182.546875 183.371094 179.664063 181.816406 178.59375 C 178.816406 176.503906 175.097656 176.164063 171.59375 176.164063 C 169.875 176.164063 165.652344 176.332031 163.761719 176.332031 C 162.597656 176.332031 159.097656 176.164063 156.152344 176.164063 C 155.320313 176.164063 154.933594 176.273438 154.933594 176.671875 C 154.933594 177.066406 155.265625 177.179688 155.875 177.179688 C 156.652344 177.179688 157.597656 177.238281 158.042969 177.351563 C 159.875 177.746094 160.320313 178.648438 160.429688 180.570313 C 160.542969 182.378906 160.542969 183.960938 160.542969 192.554688 L 160.542969 202.5 C 160.542969 207.699219 160.542969 212.164063 160.265625 214.535156 C 160.042969 216.175781 159.765625 217.417969 158.652344 217.644531 C 158.152344 217.757813 157.484375 217.871094 156.652344 217.871094 C 155.988281 217.871094 155.765625 218.039063 155.765625 218.324219 C 155.765625 218.71875 156.152344 218.890625 156.875 218.890625 C 159.097656 218.890625 162.597656 218.71875 163.652344 218.71875 C 164.484375 218.71875 168.597656 218.890625 171.816406 218.890625 C 172.539063 218.890625 172.929688 218.71875 172.929688 218.324219 C 172.929688 218.039063 172.707031 217.871094 172.261719 217.871094 C 171.59375 217.871094 170.375 217.757813 169.539063 217.644531 C 167.875 217.417969 167.539063 216.175781 167.375 214.535156 C 167.097656 212.164063 167.097656 207.699219 167.097656 202.441406 L 167.097656 201.652344 C 167.097656 201.3125 167.265625 201.199219 167.539063 201.199219 L 172.371094 201.3125 C 172.761719 201.3125 173.09375 201.367188 173.371094 201.707031 C 174.09375 202.554688 176.648438 206.398438 178.871094 209.507813 C 181.980469 213.859375 184.09375 216.515625 186.480469 217.816406 C 187.925781 218.605469 189.3125 218.890625 192.425781 218.890625 L 197.699219 218.890625 C 198.367188 218.890625 198.757813 218.773438 198.757813 218.324219 C 198.757813 218.039063 198.535156 217.871094 198.089844 217.871094 Z M 122.109375 208.394531 C 121.695313 208.394531 121.59375 208.613281 121.4375 209.511719 C 121.230469 210.519531 120.558594 212.140625 119.675781 213.203125 C 117.605469 215.777344 114.804688 216.335938 110.195313 216.335938 C 103.253906 216.335938 93.878906 209.734375 93.878906 196.414063 C 93.878906 190.988281 94.859375 185.675781 98.644531 181.925781 C 100.921875 179.6875 103.875 178.453125 108.382813 178.453125 C 113.148438 178.453125 117.1875 179.964844 118.898438 181.925781 C 120.191406 183.378906 120.867188 185.335938 120.917969 187.070313 C 120.917969 187.855469 121.023438 188.304688 121.4375 188.304688 C 121.902344 188.304688 122.007813 187.855469 122.058594 187.015625 C 122.164063 185.898438 122.109375 182.820313 122.214844 180.972656 C 122.320313 179.015625 122.472656 178.34375 122.472656 177.898438 C 122.472656 177.558594 122.265625 177.28125 121.695313 177.226563 C 120.144531 177.054688 118.484375 176.554688 116.515625 176.273438 C 114.132813 175.9375 112.214844 175.714844 109.003906 175.714844 C 101.285156 175.714844 96.363281 177.953125 92.636719 181.644531 C 87.660156 186.566406 86.574219 193.171875 86.574219 196.976563 C 86.574219 202.40625 87.917969 208.671875 92.996094 213.480469 C 97.710938 217.90625 103.667969 219.582031 110.765625 219.582031 C 114.082031 219.582031 118.019531 219.191406 120.089844 218.296875 C 120.972656 217.90625 121.179688 217.625 121.4375 216.671875 C 121.957031 214.769531 122.578125 209.902344 122.578125 209.230469 C 122.578125 208.78125 122.472656 208.394531 122.109375 208.394531 "/>
<g clip-path="url(#clip2)" clip-rule="nonzero">
<path style=" stroke:none;fill-rule:nonzero;fill:#000000;fill-opacity:1;" d="M 424.625 65.6875 C 424.625 65.6875 417.417969 68.945313 418.792969 90.5625 C 418.792969 90.5625 418.792969 77.351563 425.308594 73.0625 C 425.308594 73.0625 422.050781 69.632813 424.625 65.6875 Z M 408.503906 79.792969 C 404.917969 79.792969 402.136719 80.042969 401.332031 80.042969 C 399.796875 80.042969 396.28125 79.792969 392.472656 79.792969 C 391.375 79.792969 390.574219 79.875 390.574219 80.546875 C 390.574219 81.046875 390.867188 81.296875 391.742188 81.296875 C 392.765625 81.296875 394.523438 81.296875 395.625 81.800781 C 397.378906 82.636719 398.039063 84.226563 398.113281 89.324219 L 398.84375 126.871094 L 398.476563 126.871094 C 397.230469 125.53125 387.351563 113.492188 382.375 107.804688 C 371.6875 95.679688 360.566406 82.050781 359.683594 80.964844 C 358.441406 79.457031 357.78125 78.371094 356.976563 78.371094 C 356.246094 78.371094 355.132813 79.542969 355.132813 81.214844 L 355.367188 130.71875 C 355.292969 137.992188 355.003906 140.417969 353.097656 141.089844 C 352.074219 141.425781 350.757813 141.507813 349.804688 141.507813 C 349.074219 141.507813 348.632813 141.675781 348.632813 142.175781 C 348.632813 142.929688 349.296875 143.011719 350.246094 143.011719 C 354.050781 143.011719 357.492188 142.761719 358.148438 142.761719 C 359.539063 142.761719 362.464844 143.011719 367.222656 143.011719 C 368.25 143.011719 368.90625 142.84375 368.90625 142.175781 C 368.90625 141.675781 368.46875 141.507813 367.664063 141.507813 C 366.492188 141.507813 365.101563 141.425781 363.859375 140.921875 C 362.390625 140.335938 361.441406 138.160156 361.296875 131.636719 L 360.488281 96.515625 L 360.707031 96.515625 C 362.027344 98.105469 370.152344 108.558594 378.132813 117.589844 C 385.742188 126.203125 395.109375 137.15625 399.722656 142.175781 C 400.527344 143.097656 401.40625 144.015625 402.210938 144.015625 C 402.871094 144.015625 403.160156 143.261719 403.160156 141.425781 L 403.964844 88.65625 C 404.042969 83.972656 404.625 82.21875 406.675781 81.550781 C 407.554688 81.296875 408.136719 81.296875 408.871094 81.296875 C 409.75 81.296875 410.1875 81.046875 410.1875 80.546875 C 410.1875 79.875 409.457031 79.792969 408.503906 79.792969 Z M 337.226563 142.589844 C 336.425781 142.589844 335.246094 142.417969 334.5 142.25 C 332.894531 141.910156 332.519531 140.378906 332.359375 138.085938 C 332.144531 134.433594 332.144531 127.722656 332.144531 119.484375 L 332.144531 104.535156 C 332.144531 91.625 332.144531 89.246094 332.253906 86.527344 C 332.359375 83.554688 332.785156 82.113281 334.230469 81.6875 C 334.875 81.515625 335.300781 81.429688 335.835938 81.429688 C 336.371094 81.429688 336.695313 81.261719 336.695313 80.582031 C 336.695313 80.070313 336.265625 79.902344 335.570313 79.902344 C 333.535156 79.902344 330.378906 80.15625 329.042969 80.15625 C 327.488281 80.15625 324.117188 79.902344 322.085938 79.902344 C 321.230469 79.902344 320.800781 80.070313 320.800781 80.582031 C 320.800781 81.261719 321.121094 81.429688 321.660156 81.429688 C 322.296875 81.429688 322.992188 81.515625 323.582031 81.769531 C 324.761719 82.195313 325.296875 83.640625 325.402344 86.527344 C 325.507813 89.246094 325.507813 91.625 325.507813 104.535156 L 325.507813 119.484375 C 325.507813 127.722656 325.507813 134.433594 325.242188 138 C 325.082031 140.464844 324.761719 141.910156 323.691406 142.25 C 323.210938 142.417969 322.566406 142.589844 321.765625 142.589844 C 321.121094 142.589844 320.90625 142.84375 320.90625 143.265625 C 320.90625 143.859375 321.285156 144.117188 321.980469 144.117188 C 324.117188 144.117188 327.488281 143.859375 328.71875 143.859375 C 330.164063 143.859375 333.535156 144.117188 337.066406 144.117188 C 337.65625 144.117188 338.085938 143.859375 338.085938 143.265625 C 338.085938 142.84375 337.816406 142.589844 337.226563 142.589844 Z M 294.652344 106.671875 L 292.589844 104.929688 C 286.472656 99.699219 284.777344 96.792969 284.777344 92.976563 C 284.777344 87.992188 288.09375 84.421875 293.546875 84.421875 C 298.335938 84.421875 300.472656 86.914063 301.574219 88.492188 C 303.125 90.652344 303.492188 93.222656 303.492188 93.972656 C 303.492188 94.96875 303.714844 95.464844 304.230469 95.464844 C 304.816406 95.464844 305.039063 94.800781 305.039063 92.976563 C 305.039063 86.5 305.335938 84.089844 305.335938 83.011719 C 305.335938 82.433594 304.964844 82.183594 304.300781 82.015625 C 302.386719 81.433594 299.292969 80.605469 294.503906 80.605469 C 284.265625 80.605469 277.484375 87.160156 277.484375 96.292969 C 277.484375 103.019531 280.285156 108.832031 288.386719 115.96875 L 291.777344 118.957031 C 297.894531 124.355469 299 128.171875 299 132.238281 C 299 136.640625 295.757813 141.703125 289.125 141.703125 C 284.558594 141.703125 280.210938 139.460938 278.589844 133.320313 C 278.21875 131.910156 277.925781 130.164063 277.925781 129.085938 C 277.925781 128.421875 277.855469 127.675781 277.191406 127.675781 C 276.601563 127.675781 276.378906 128.589844 276.308594 129.832031 C 276.230469 131.160156 275.9375 136.144531 275.9375 140.710938 C 275.9375 142.535156 276.15625 142.953125 277.335938 143.53125 C 280.503906 145.109375 283.820313 145.6875 288.09375 145.6875 C 292 145.6875 296.125 144.941406 299.808594 142.285156 C 305.113281 138.382813 306.734375 132.65625 306.734375 127.84375 C 306.734375 119.953125 303.566406 114.226563 294.652344 106.671875 Z M 253.265625 106.671875 L 251.199219 104.929688 C 245.085938 99.699219 243.390625 96.792969 243.390625 92.976563 C 243.390625 87.992188 246.707031 84.421875 252.160156 84.421875 C 256.949219 84.421875 259.085938 86.914063 260.1875 88.492188 C 261.734375 90.652344 262.101563 93.222656 262.101563 93.972656 C 262.101563 94.96875 262.324219 95.464844 262.839844 95.464844 C 263.429688 95.464844 263.652344 94.800781 263.652344 92.976563 C 263.652344 86.5 263.945313 84.089844 263.945313 83.011719 C 263.945313 82.433594 263.578125 82.183594 262.914063 82.015625 C 261 81.433594 257.90625 80.605469 253.113281 80.605469 C 242.875 80.605469 236.097656 87.160156 236.097656 96.292969 C 236.097656 103.019531 238.894531 108.832031 247 115.96875 L 250.390625 118.957031 C 256.503906 124.355469 257.613281 128.171875 257.613281 132.238281 C 257.613281 136.640625 254.367188 141.703125 247.738281 141.703125 C 243.167969 141.703125 238.820313 139.460938 237.203125 133.320313 C 236.832031 131.910156 236.539063 130.164063 236.539063 129.085938 C 236.539063 128.421875 236.464844 127.675781 235.800781 127.675781 C 235.210938 127.675781 234.992188 128.589844 234.917969 129.832031 C 234.84375 131.160156 234.550781 136.144531 234.550781 140.710938 C 234.550781 142.535156 234.769531 142.953125 235.949219 143.53125 C 239.117188 145.109375 242.433594 145.6875 246.707031 145.6875 C 250.609375 145.6875 254.738281 144.941406 258.421875 142.285156 C 263.726563 138.382813 265.34375 132.65625 265.34375 127.84375 C 265.34375 119.953125 262.179688 114.226563 253.265625 106.671875 Z M 454.769531 108.238281 L 451.773438 105.546875 C 442.898438 97.492188 440.4375 93.019531 440.4375 87.136719 C 440.4375 79.464844 445.25 73.964844 453.164063 73.964844 C 460.113281 73.964844 463.214844 77.800781 464.820313 80.230469 C 467.066406 83.558594 467.597656 87.519531 467.597656 88.671875 C 467.597656 90.203125 467.917969 90.972656 468.667969 90.972656 C 469.523438 90.972656 469.84375 89.949219 469.84375 87.136719 C 469.84375 77.160156 470.273438 73.453125 470.273438 71.792969 C 470.273438 70.894531 469.738281 70.511719 468.773438 70.257813 C 465.996094 69.359375 461.503906 68.082031 454.550781 68.082031 C 439.691406 68.082031 429.855469 78.183594 429.855469 92.25 C 429.855469 102.609375 433.917969 111.5625 445.679688 122.554688 L 450.597656 127.160156 C 459.472656 135.472656 461.078125 141.351563 461.078125 147.617188 C 461.078125 154.398438 456.371094 162.195313 446.75 162.195313 C 440.121094 162.195313 433.808594 158.742188 431.460938 149.28125 C 430.921875 147.105469 430.496094 144.421875 430.496094 142.761719 C 430.496094 141.734375 430.386719 140.585938 429.425781 140.585938 C 428.570313 140.585938 428.25 141.992188 428.144531 143.910156 C 428.035156 145.960938 427.609375 153.628906 427.609375 160.664063 C 427.609375 163.476563 427.929688 164.117188 429.644531 165.007813 C 434.238281 167.441406 439.050781 168.335938 445.25 168.335938 C 450.917969 168.335938 456.910156 167.183594 462.253906 163.09375 C 469.953125 157.082031 472.304688 148.257813 472.304688 140.84375 C 472.304688 128.695313 467.707031 119.871094 454.769531 108.238281 Z M 148.796875 106.671875 L 146.734375 104.929688 C 140.617188 99.699219 138.921875 96.792969 138.921875 92.976563 C 138.921875 87.992188 142.238281 84.421875 147.691406 84.421875 C 152.480469 84.421875 154.617188 86.914063 155.722656 88.492188 C 157.269531 90.652344 157.636719 93.222656 157.636719 93.972656 C 157.636719 94.96875 157.859375 95.464844 158.375 95.464844 C 158.964844 95.464844 159.183594 94.800781 159.183594 92.976563 C 159.183594 86.5 159.480469 84.089844 159.480469 83.011719 C 159.480469 82.433594 159.109375 82.183594 158.449219 82.015625 C 156.53125 81.433594 153.4375 80.605469 148.648438 80.605469 C 138.40625 80.605469 131.628906 87.160156 131.628906 96.292969 C 131.628906 103.019531 134.429688 108.832031 142.535156 115.96875 L 145.921875 118.957031 C 152.039063 124.355469 153.144531 128.171875 153.144531 132.238281 C 153.144531 136.640625 149.902344 141.703125 143.269531 141.703125 C 138.703125 141.703125 134.355469 139.460938 132.734375 133.320313 C 132.367188 131.910156 132.070313 130.164063 132.070313 129.085938 C 132.070313 128.421875 131.996094 127.675781 131.335938 127.675781 C 130.746094 127.675781 130.523438 128.589844 130.453125 129.832031 C 130.378906 131.160156 130.082031 136.144531 130.082031 140.710938 C 130.082031 142.535156 130.304688 142.953125 131.480469 143.53125 C 134.648438 145.109375 137.964844 145.6875 142.238281 145.6875 C 146.144531 145.6875 150.269531 144.941406 153.953125 142.285156 C 159.257813 138.382813 160.878906 132.65625 160.878906 127.84375 C 160.878906 119.953125 157.710938 114.226563 148.796875 106.671875 Z M 107.40625 106.671875 L 105.34375 104.929688 C 99.230469 99.699219 97.535156 96.792969 97.535156 92.976563 C 97.535156 87.992188 100.851563 84.421875 106.300781 84.421875 C 111.09375 84.421875 113.226563 86.914063 114.332031 88.492188 C 115.882813 90.652344 116.25 93.222656 116.25 93.972656 C 116.25 94.96875 116.46875 95.464844 116.984375 95.464844 C 117.574219 95.464844 117.796875 94.800781 117.796875 92.976563 C 117.796875 86.5 118.089844 84.089844 118.089844 83.011719 C 118.089844 82.433594 117.722656 82.183594 117.058594 82.015625 C 115.144531 81.433594 112.050781 80.605469 107.261719 80.605469 C 97.019531 80.605469 90.242188 87.160156 90.242188 96.292969 C 90.242188 103.019531 93.042969 108.832031 101.144531 115.96875 L 104.535156 118.957031 C 110.648438 124.355469 111.753906 128.171875 111.753906 132.238281 C 111.753906 136.640625 108.511719 141.703125 101.882813 141.703125 C 97.3125 141.703125 92.96875 139.460938 91.347656 133.320313 C 90.976563 131.910156 90.683594 130.164063 90.683594 129.085938 C 90.683594 128.421875 90.609375 127.675781 89.945313 127.675781 C 89.359375 127.675781 89.136719 128.589844 89.0625 129.832031 C 88.988281 131.160156 88.695313 136.144531 88.695313 140.710938 C 88.695313 142.535156 88.914063 142.953125 90.09375 143.53125 C 93.261719 145.109375 96.578125 145.6875 100.851563 145.6875 C 104.753906 145.6875 108.882813 144.941406 112.5625 142.285156 C 117.871094 138.382813 119.492188 132.65625 119.492188 127.84375 C 119.492188 119.953125 116.324219 114.226563 107.40625 106.671875 Z M 203.699219 126.996094 L 183.566406 127.011719 C 183.277344 127.011719 183.203125 126.746094 183.277344 126.398438 L 193.394531 94.925781 C 193.46875 94.574219 193.613281 94.136719 193.828125 94.136719 C 194.046875 94.136719 194.121094 94.574219 194.191406 94.925781 L 204.0625 126.46875 C 204.136719 126.734375 204.0625 126.996094 203.699219 126.996094 Z M 224.964844 142.722656 C 224.089844 142.722656 223 142.636719 221.910156 142.371094 C 220.378906 141.929688 218.269531 140.710938 215.507813 132.828125 C 210.851563 119.523438 199.214844 83.808594 197.46875 78.992188 C 196.738281 76.980469 196.304688 76.191406 195.648438 76.191406 C 194.921875 76.191406 194.484375 77.15625 193.613281 79.691406 L 175.351563 134.667969 C 173.898438 139.042969 172.515625 142.019531 169.167969 142.546875 C 168.589844 142.636719 167.570313 142.722656 166.914063 142.722656 C 166.332031 142.722656 166.042969 142.898438 166.042969 143.421875 C 166.042969 144.121094 166.480469 144.011719 167.425781 144.011719 C 171.207031 144.011719 173.847656 144.011719 176.175781 144.011719 C 176.976563 144.011719 178.53125 141.519531 178.984375 140.007813 C 179.292969 138.960938 182.472656 129.585938 182.472656 129.585938 C 182.617188 129.058594 182.765625 128.886719 183.128906 128.886719 L 204.214844 128.929688 C 204.578125 128.929688 204.796875 129.109375 204.941406 129.546875 L 208.304688 140.621094 C 208.667969 141.671875 209.285156 143.902344 210.59375 143.988281 C 216.414063 144.164063 224.691406 143.886719 225.910156 143.941406 C 226.519531 143.972656 225.546875 142.722656 224.964844 142.722656 Z M 58.53125 142.871094 L 27.878906 142.890625 C 27.4375 142.890625 27.328125 142.492188 27.4375 141.957031 L 42.839844 94.046875 C 42.953125 93.511719 43.171875 92.847656 43.503906 92.847656 C 43.839844 92.847656 43.949219 93.511719 44.058594 94.046875 L 59.085938 142.070313 C 59.195313 142.46875 59.085938 142.871094 58.53125 142.871094 Z M 90.902344 166.808594 C 89.570313 166.808594 87.910156 166.675781 86.25 166.273438 C 83.921875 165.609375 80.714844 163.742188 76.503906 151.746094 C 69.417969 131.492188 51.699219 77.121094 49.042969 69.792969 C 47.933594 66.730469 47.269531 65.527344 46.273438 65.527344 C 45.164063 65.527344 44.503906 66.996094 43.171875 70.859375 L 15.378906 154.550781 C 13.164063 161.210938 11.058594 165.742188 5.964844 166.539063 C 5.078125 166.675781 3.527344 166.808594 2.53125 166.808594 C 1.644531 166.808594 1.203125 167.074219 1.203125 167.871094 C 1.203125 168.9375 1.867188 168.769531 3.304688 168.769531 C 9.066406 168.769531 13.085938 168.769531 16.628906 168.769531 C 17.847656 168.769531 20.21875 164.976563 20.902344 162.675781 C 21.375 161.085938 26.21875 146.808594 26.21875 146.808594 C 26.4375 146.011719 26.660156 145.746094 27.214844 145.746094 L 59.316406 145.816406 C 59.867188 145.816406 60.199219 146.082031 60.421875 146.746094 L 65.542969 163.605469 C 66.09375 165.207031 67.035156 168.605469 69.027344 168.738281 C 77.886719 169.003906 90.484375 168.582031 92.339844 168.667969 C 93.273438 168.710938 91.785156 166.808594 90.902344 166.808594 "/>
</g>
<path style=" stroke:none;fill-rule:nonzero;fill:rgb(13.699341%,12.199402%,12.5%);fill-opacity:1;" d="M 460.785156 204.546875 L 460.785156 199.90625 L 459.128906 199.90625 L 459.128906 198.960938 L 463.566406 198.960938 L 463.566406 199.90625 L 461.917969 199.90625 L 461.917969 204.546875 L 460.785156 204.546875 "/>
<path style=" stroke:none;fill-rule:nonzero;fill:rgb(13.699341%,12.199402%,12.5%);fill-opacity:1;" d="M 464.28125 204.546875 L 464.28125 198.960938 L 465.96875 198.960938 L 466.984375 202.769531 L 467.984375 198.960938 L 469.679688 198.960938 L 469.679688 204.546875 L 468.628906 204.546875 L 468.628906 200.148438 L 467.519531 204.546875 L 466.433594 204.546875 L 465.328125 200.148438 L 465.328125 204.546875 L 464.28125 204.546875 "/>
</g>
</svg>
